<svg
    width="370"
    height="101"
    viewBox="0 0 370 101"
    fill="none"
    xmlns="http://www.w3.org/2000/svg"
>
    <path
        d="M100.207 78H91.999V49.292C91.999 46.4626 91.4652 43.8066 90.3975 41.3242C89.3298 38.8418 87.8617 36.6797 85.9932 34.8379C84.1514 32.9694 81.9759 31.5013 79.4668 30.4336C76.9844 29.3392 74.3285 28.792 71.499 28.792H67.0947V78H58.8867V20.584H71.499C74.1149 20.584 76.624 20.931 79.0264 21.625C81.4554 22.2923 83.7243 23.2399 85.833 24.4678C87.9417 25.6956 89.8636 27.1637 91.5986 28.8721C93.3337 30.5804 94.8418 32.4756 96.123 34.5576C97.3776 32.4756 98.8724 30.5804 100.607 28.8721C102.342 27.1637 104.264 25.6956 106.373 24.4678C108.482 23.2399 110.737 22.2923 113.14 21.625C115.569 20.931 118.091 20.584 120.707 20.584H133.359V78H125.151V28.792H120.707C117.878 28.792 115.222 29.3392 112.739 30.4336C110.257 31.5013 108.081 32.9694 106.213 34.8379C104.371 36.6797 102.903 38.8418 101.809 41.3242C100.741 43.8066 100.207 46.4626 100.207 49.292V78ZM215.68 49.292C215.68 53.2692 215.052 57.0062 213.798 60.5029C212.543 63.9997 210.755 67.0426 208.433 69.6318C206.137 72.221 203.374 74.263 200.145 75.7578C196.915 77.2526 193.325 78 189.374 78H170.275C166.298 78 162.681 77.2526 159.425 75.7578C156.168 74.263 153.379 72.221 151.057 69.6318C148.761 67.0426 146.986 63.9997 145.731 60.5029C144.477 57.0062 143.85 53.2692 143.85 49.292C143.85 45.3415 144.477 41.6312 145.731 38.1611C146.986 34.6644 148.761 31.6214 151.057 29.0322C153.379 26.4163 156.168 24.361 159.425 22.8662C162.681 21.3447 166.298 20.584 170.275 20.584H189.374C193.325 20.584 196.915 21.3447 200.145 22.8662C203.374 24.361 206.137 26.4163 208.433 29.0322C210.755 31.6214 212.543 34.6644 213.798 38.1611C215.052 41.6312 215.68 45.3415 215.68 49.292ZM207.472 49.292C207.472 46.4626 207.058 43.8066 206.23 41.3242C205.403 38.8418 204.202 36.6797 202.627 34.8379C201.079 32.9694 199.184 31.5013 196.941 30.4336C194.726 29.3392 192.203 28.792 189.374 28.792H170.275C167.446 28.792 164.897 29.3392 162.628 30.4336C160.386 31.5013 158.477 32.9694 156.902 34.8379C155.354 36.6797 154.153 38.8418 153.299 41.3242C152.471 43.8066 152.058 46.4626 152.058 49.292C152.058 52.1214 152.471 54.7907 153.299 57.2998C154.153 59.7822 155.354 61.9577 156.902 63.8262C158.477 65.668 160.386 67.1227 162.628 68.1904C164.897 69.2581 167.446 69.792 170.275 69.792H189.374C192.203 69.792 194.726 69.2581 196.941 68.1904C199.184 67.1227 201.079 65.668 202.627 63.8262C204.202 61.9577 205.403 59.7822 206.23 57.2998C207.058 54.7907 207.472 52.1214 207.472 49.292ZM234.378 78H226.17V20.584H230.254C232.923 20.584 235.753 20.931 238.742 21.625C241.758 22.319 244.828 23.32 247.951 24.6279C251.074 25.9359 254.184 27.5241 257.28 29.3926C260.403 31.2344 263.42 33.3298 266.329 35.6787C269.239 38.0277 271.975 40.5902 274.537 43.3662C277.1 46.1156 279.395 49.0518 281.424 52.1748V20.584H289.632V78H281.424C281.424 73.7826 280.69 69.7253 279.222 65.8281C277.754 61.9043 275.792 58.2074 273.336 54.7373C270.88 51.2673 268.051 48.0775 264.848 45.168C261.645 42.2318 258.295 39.6559 254.798 37.4404C251.328 35.2249 247.831 33.4098 244.308 31.9951C240.784 30.5537 237.474 29.5928 234.378 29.1123V78ZM366.827 61.584C366.827 63.8796 366.4 66.0283 365.546 68.0303C364.692 70.0055 363.517 71.7406 362.022 73.2354C360.554 74.7035 358.819 75.8646 356.817 76.7188C354.842 77.5729 352.72 78 350.451 78H300.562V69.792H350.451C351.599 69.792 352.667 69.5785 353.654 69.1514C354.642 68.7243 355.496 68.137 356.217 67.3896C356.964 66.6423 357.551 65.7747 357.979 64.7871C358.406 63.7728 358.619 62.7051 358.619 61.584C358.619 60.4629 358.406 59.4085 357.979 58.4209C357.551 57.4333 356.964 56.5658 356.217 55.8184C355.496 55.071 354.642 54.4837 353.654 54.0566C352.667 53.6296 351.599 53.416 350.451 53.416H316.979C314.736 53.416 312.614 52.9889 310.612 52.1348C308.61 51.2806 306.862 50.1195 305.367 48.6514C303.899 47.1566 302.725 45.4082 301.844 43.4062C300.99 41.4043 300.562 39.2689 300.562 37C300.562 34.7578 300.99 32.6357 301.844 30.6338C302.725 28.6318 303.899 26.8968 305.367 25.4287C306.862 23.9339 308.61 22.7594 310.612 21.9053C312.614 21.0244 314.736 20.584 316.979 20.584H362.743V28.792H316.979C315.857 28.792 314.79 29.0055 313.775 29.4326C312.788 29.8597 311.92 30.4469 311.173 31.1943C310.425 31.9417 309.838 32.8226 309.411 33.8369C308.984 34.8245 308.771 35.8789 308.771 37C308.771 38.1211 308.984 39.1888 309.411 40.2031C309.838 41.1908 310.425 42.0583 311.173 42.8057C311.92 43.5531 312.788 44.1403 313.775 44.5674C314.79 44.9945 315.857 45.208 316.979 45.208H350.451C352.72 45.208 354.842 45.6484 356.817 46.5293C358.819 47.3835 360.554 48.5579 362.022 50.0527C363.517 51.5208 364.692 53.2559 365.546 55.2578C366.4 57.2331 366.827 59.3418 366.827 61.584Z"
        fill="#002A42"
    />
    <path
        d="M361 56C360 49.2991 348 49.2991 348 49.2991H298.189L285.119 56.688L274.662 38L266.819 49.2991H243.291L230.221 71L222.378 45.0714L211.921 56.688L204.079 49.2991H185.779L177.937 38L169.626 60.3825L159.637 49.2991H15"
        stroke="#EF8F00"
        stroke-width="3"
    />
    <path
        d="M162.697 98H154.008V89.5977H162.697V90.7988H155.209V96.7988H162.697V98ZM161.678 94.4023H155.807V93.2012H161.678V94.4023ZM166.4 98H166.102C165.809 98 165.535 97.9453 165.281 97.8359C165.027 97.7266 164.805 97.5781 164.613 97.3906C164.422 97.1992 164.271 96.9766 164.162 96.7227C164.053 96.4648 163.998 96.1914 163.998 95.9023V89H165.199V95.9023C165.199 96.0273 165.223 96.1445 165.27 96.2539C165.316 96.3594 165.381 96.4531 165.463 96.5352C165.545 96.6172 165.641 96.6816 165.75 96.7285C165.859 96.7754 165.977 96.7988 166.102 96.7988H166.4V98ZM175.125 93.5C175.125 93.793 175.07 94.0664 174.961 94.3203C174.852 94.5742 174.701 94.7969 174.51 94.9883C174.322 95.1758 174.1 95.3242 173.842 95.4336C173.588 95.543 173.316 95.5977 173.027 95.5977H168.428C168.514 95.7734 168.621 95.9355 168.75 96.084C168.879 96.2324 169.023 96.3594 169.184 96.4648C169.344 96.5703 169.518 96.6523 169.705 96.7109C169.896 96.7695 170.096 96.7988 170.303 96.7988H174.229V98H170.303C169.85 97.9961 169.424 97.9082 169.025 97.7363C168.627 97.5605 168.279 97.3242 167.982 97.0273C167.689 96.7266 167.457 96.377 167.285 95.9785C167.113 95.5801 167.027 95.1543 167.027 94.7012C167.027 94.248 167.113 93.8223 167.285 93.4238C167.457 93.0254 167.689 92.6777 167.982 92.3809C168.279 92.0801 168.627 91.8438 169.025 91.6719C169.424 91.4961 169.85 91.4062 170.303 91.4023H173.027C173.316 91.4023 173.588 91.457 173.842 91.5664C174.1 91.6758 174.322 91.8262 174.51 92.0176C174.701 92.2051 174.852 92.4258 174.961 92.6797C175.07 92.9336 175.125 93.207 175.125 93.5ZM173.027 94.4023C173.148 94.4023 173.264 94.3789 173.373 94.332C173.482 94.2852 173.578 94.2207 173.66 94.1387C173.742 94.0566 173.807 93.9609 173.854 93.8516C173.9 93.7422 173.924 93.625 173.924 93.5C173.924 93.3789 173.9 93.2637 173.854 93.1543C173.807 93.0449 173.742 92.9492 173.66 92.8672C173.578 92.7852 173.482 92.7207 173.373 92.6738C173.264 92.623 173.148 92.5977 173.027 92.5977H170.303C170.037 92.5977 169.787 92.6445 169.553 92.7383C169.322 92.832 169.115 92.9609 168.932 93.125C168.752 93.2852 168.602 93.4766 168.48 93.6992C168.363 93.918 168.287 94.1523 168.252 94.4023H173.027ZM183.088 98H179.162C178.709 97.9961 178.283 97.9082 177.885 97.7363C177.486 97.5605 177.139 97.3242 176.842 97.0273C176.549 96.7266 176.316 96.377 176.145 95.9785C175.973 95.5801 175.887 95.1543 175.887 94.7012C175.887 94.248 175.973 93.8223 176.145 93.4238C176.316 93.0215 176.549 92.6719 176.842 92.375C177.139 92.0742 177.486 91.8379 177.885 91.666C178.283 91.4902 178.709 91.4023 179.162 91.4023H183.088V92.5977H179.162C178.873 92.6016 178.602 92.6602 178.348 92.7734C178.098 92.8828 177.879 93.0332 177.691 93.2246C177.504 93.4121 177.355 93.6328 177.246 93.8867C177.141 94.1406 177.088 94.4121 177.088 94.7012C177.088 94.9902 177.141 95.2617 177.246 95.5156C177.355 95.7695 177.504 95.9922 177.691 96.1836C177.879 96.3711 178.098 96.5215 178.348 96.6348C178.602 96.7441 178.873 96.7988 179.162 96.7988H183.088V98ZM186.721 98H185.52V92.5977H183.721V91.4023H185.52V89H186.721V91.4023H190.922V92.5977H186.721V98ZM198.398 92.5977H193.898C193.773 92.5977 193.656 92.623 193.547 92.6738C193.438 92.7207 193.342 92.7852 193.26 92.8672C193.178 92.9492 193.113 93.0449 193.066 93.1543C193.02 93.2637 192.996 93.3789 192.996 93.5V98H191.795V93.5C191.795 93.207 191.85 92.9336 191.959 92.6797C192.068 92.4258 192.219 92.2051 192.41 92.0176C192.602 91.8262 192.824 91.6758 193.078 91.5664C193.332 91.457 193.605 91.4023 193.898 91.4023H198.398V92.5977ZM200.865 89.9023C200.865 90.0273 200.842 90.1445 200.795 90.2539C200.748 90.3594 200.684 90.4531 200.602 90.5352C200.52 90.6172 200.424 90.6816 200.314 90.7285C200.205 90.7754 200.09 90.7988 199.969 90.7988C199.844 90.7988 199.727 90.7754 199.617 90.7285C199.508 90.6816 199.412 90.6172 199.33 90.5352C199.248 90.4531 199.184 90.3594 199.137 90.2539C199.09 90.1445 199.066 90.0273 199.066 89.9023C199.066 89.7812 199.09 89.666 199.137 89.5566C199.184 89.4473 199.248 89.3516 199.33 89.2695C199.412 89.1875 199.508 89.123 199.617 89.0762C199.727 89.0254 199.844 89 199.969 89C200.09 89 200.205 89.0254 200.314 89.0762C200.424 89.123 200.52 89.1875 200.602 89.2695C200.684 89.3516 200.748 89.4473 200.795 89.5566C200.842 89.666 200.865 89.7812 200.865 89.9023ZM200.566 98H199.365V91.4023H200.566V98ZM209.08 98H205.154C204.701 97.9961 204.275 97.9082 203.877 97.7363C203.479 97.5605 203.131 97.3242 202.834 97.0273C202.541 96.7266 202.309 96.377 202.137 95.9785C201.965 95.5801 201.879 95.1543 201.879 94.7012C201.879 94.248 201.965 93.8223 202.137 93.4238C202.309 93.0215 202.541 92.6719 202.834 92.375C203.131 92.0742 203.479 91.8379 203.877 91.666C204.275 91.4902 204.701 91.4023 205.154 91.4023H209.08V92.5977H205.154C204.865 92.6016 204.594 92.6602 204.34 92.7734C204.09 92.8828 203.871 93.0332 203.684 93.2246C203.496 93.4121 203.348 93.6328 203.238 93.8867C203.133 94.1406 203.08 94.4121 203.08 94.7012C203.08 94.9902 203.133 95.2617 203.238 95.5156C203.348 95.7695 203.496 95.9922 203.684 96.1836C203.871 96.3711 204.09 96.5215 204.34 96.6348C204.594 96.7441 204.865 96.7988 205.154 96.7988H209.08V98ZM217.91 98H211.91C211.617 98 211.344 97.9453 211.09 97.8359C210.836 97.7266 210.613 97.5781 210.422 97.3906C210.23 97.1992 210.08 96.9766 209.971 96.7227C209.861 96.4648 209.807 96.1914 209.807 95.9023C209.807 95.6094 209.861 95.3359 209.971 95.082C210.08 94.8281 210.23 94.6055 210.422 94.4141C210.613 94.2227 210.836 94.0723 211.09 93.9629C211.344 93.8535 211.617 93.7988 211.91 93.7988H216.105V95H211.91C211.785 95 211.668 95.0254 211.559 95.0762C211.449 95.123 211.354 95.1875 211.271 95.2695C211.189 95.3516 211.125 95.4473 211.078 95.5566C211.031 95.666 211.008 95.7812 211.008 95.9023C211.008 96.0273 211.031 96.1445 211.078 96.2539C211.125 96.3594 211.189 96.4531 211.271 96.5352C211.354 96.6172 211.449 96.6816 211.559 96.7285C211.668 96.7754 211.785 96.7988 211.91 96.7988H216.709V93.5C216.709 93.3789 216.684 93.2637 216.633 93.1543C216.586 93.0449 216.521 92.9492 216.439 92.8672C216.357 92.7852 216.262 92.7207 216.152 92.6738C216.043 92.623 215.928 92.5977 215.807 92.5977H211.008V91.4023H215.807C216.1 91.4023 216.373 91.457 216.627 91.5664C216.881 91.6758 217.104 91.8262 217.295 92.0176C217.486 92.2051 217.637 92.4258 217.746 92.6797C217.855 92.9336 217.91 93.207 217.91 93.5V98ZM221.947 98H221.648C221.355 98 221.082 97.9453 220.828 97.8359C220.574 97.7266 220.352 97.5781 220.16 97.3906C219.969 97.1992 219.818 96.9766 219.709 96.7227C219.6 96.4648 219.545 96.1914 219.545 95.9023V89H220.746V95.9023C220.746 96.0273 220.77 96.1445 220.816 96.2539C220.863 96.3594 220.928 96.4531 221.01 96.5352C221.092 96.6172 221.188 96.6816 221.297 96.7285C221.406 96.7754 221.523 96.7988 221.648 96.7988H221.947V98ZM233.625 98H232.424V93.7988C232.424 93.3848 232.346 92.9961 232.189 92.6328C232.033 92.2695 231.818 91.9531 231.545 91.6836C231.275 91.4102 230.957 91.1953 230.59 91.0391C230.227 90.8789 229.838 90.7988 229.424 90.7988H228.779V98H227.578V89.5977H229.424C229.807 89.5977 230.174 89.6484 230.525 89.75C230.881 89.8477 231.213 89.9863 231.521 90.166C231.83 90.3457 232.111 90.5605 232.365 90.8105C232.619 91.0605 232.84 91.3379 233.027 91.6426C233.211 91.3379 233.43 91.0605 233.684 90.8105C233.938 90.5605 234.219 90.3457 234.527 90.166C234.836 89.9863 235.166 89.8477 235.518 89.75C235.873 89.6484 236.242 89.5977 236.625 89.5977H238.477V98H237.275V90.7988H236.625C236.211 90.7988 235.822 90.8789 235.459 91.0391C235.096 91.1953 234.777 91.4102 234.504 91.6836C234.234 91.9531 234.02 92.2695 233.859 92.6328C233.703 92.9961 233.625 93.3848 233.625 93.7988V98ZM248.291 94.7012C248.291 95.1543 248.205 95.5801 248.033 95.9785C247.861 96.377 247.627 96.7266 247.33 97.0273C247.037 97.3242 246.691 97.5605 246.293 97.7363C245.895 97.9082 245.469 97.9961 245.016 98H243.17C242.717 97.9961 242.291 97.9082 241.893 97.7363C241.494 97.5605 241.146 97.3242 240.85 97.0273C240.557 96.7266 240.324 96.377 240.152 95.9785C239.98 95.5801 239.895 95.1543 239.895 94.7012C239.895 94.248 239.98 93.8223 240.152 93.4238C240.324 93.0215 240.557 92.6719 240.85 92.375C241.146 92.0742 241.494 91.8379 241.893 91.666C242.291 91.4902 242.717 91.4023 243.17 91.4023H245.016C245.316 91.4023 245.607 91.4414 245.889 91.5195C246.17 91.5977 246.432 91.709 246.674 91.8535C246.916 91.998 247.137 92.1719 247.336 92.375C247.535 92.5742 247.705 92.7969 247.846 93.043C247.986 93.2852 248.096 93.5469 248.174 93.8281C248.252 94.1094 248.291 94.4004 248.291 94.7012ZM247.096 94.7012C247.096 94.4121 247.041 94.1406 246.932 93.8867C246.822 93.6328 246.674 93.4121 246.486 93.2246C246.299 93.0332 246.078 92.8828 245.824 92.7734C245.574 92.6602 245.305 92.6016 245.016 92.5977H243.17C242.881 92.6016 242.609 92.6602 242.355 92.7734C242.105 92.8828 241.887 93.0332 241.699 93.2246C241.512 93.4121 241.363 93.6328 241.254 93.8867C241.148 94.1406 241.096 94.4121 241.096 94.7012C241.096 94.9902 241.148 95.2617 241.254 95.5156C241.363 95.7695 241.512 95.9922 241.699 96.1836C241.887 96.3711 242.105 96.5215 242.355 96.6348C242.609 96.7441 242.881 96.7988 243.17 96.7988H245.016C245.305 96.7988 245.574 96.7441 245.824 96.6348C246.078 96.5215 246.299 96.3711 246.486 96.1836C246.674 95.9922 246.822 95.7695 246.932 95.5156C247.041 95.2617 247.096 94.9902 247.096 94.7012ZM250.805 98H249.604V91.4023H254.104C254.557 91.4023 254.982 91.4902 255.381 91.666C255.779 91.8379 256.127 92.0742 256.424 92.375C256.721 92.6719 256.955 93.0215 257.127 93.4238C257.299 93.8223 257.385 94.248 257.385 94.7012V98H256.184V94.7012C256.184 94.4121 256.129 94.1406 256.02 93.8867C255.91 93.6328 255.762 93.4121 255.574 93.2246C255.387 93.0332 255.166 92.8828 254.912 92.7734C254.662 92.6602 254.393 92.6016 254.104 92.5977H250.805V98ZM260.502 89.9023C260.502 90.0273 260.479 90.1445 260.432 90.2539C260.385 90.3594 260.32 90.4531 260.238 90.5352C260.156 90.6172 260.061 90.6816 259.951 90.7285C259.842 90.7754 259.727 90.7988 259.605 90.7988C259.48 90.7988 259.363 90.7754 259.254 90.7285C259.145 90.6816 259.049 90.6172 258.967 90.5352C258.885 90.4531 258.82 90.3594 258.773 90.2539C258.727 90.1445 258.703 90.0273 258.703 89.9023C258.703 89.7812 258.727 89.666 258.773 89.5566C258.82 89.4473 258.885 89.3516 258.967 89.2695C259.049 89.1875 259.145 89.123 259.254 89.0762C259.363 89.0254 259.48 89 259.605 89C259.727 89 259.842 89.0254 259.951 89.0762C260.061 89.123 260.156 89.1875 260.238 89.2695C260.32 89.3516 260.385 89.4473 260.432 89.5566C260.479 89.666 260.502 89.7812 260.502 89.9023ZM260.203 98H259.002V91.4023H260.203V98ZM264.252 98H263.051V92.5977H261.252V91.4023H263.051V89H264.252V91.4023H268.453V92.5977H264.252V98ZM277.295 94.7012C277.295 95.1543 277.209 95.5801 277.037 95.9785C276.865 96.377 276.631 96.7266 276.334 97.0273C276.041 97.3242 275.695 97.5605 275.297 97.7363C274.898 97.9082 274.473 97.9961 274.02 98H272.174C271.721 97.9961 271.295 97.9082 270.896 97.7363C270.498 97.5605 270.15 97.3242 269.854 97.0273C269.561 96.7266 269.328 96.377 269.156 95.9785C268.984 95.5801 268.898 95.1543 268.898 94.7012C268.898 94.248 268.984 93.8223 269.156 93.4238C269.328 93.0215 269.561 92.6719 269.854 92.375C270.15 92.0742 270.498 91.8379 270.896 91.666C271.295 91.4902 271.721 91.4023 272.174 91.4023H274.02C274.32 91.4023 274.611 91.4414 274.893 91.5195C275.174 91.5977 275.436 91.709 275.678 91.8535C275.92 91.998 276.141 92.1719 276.34 92.375C276.539 92.5742 276.709 92.7969 276.85 93.043C276.99 93.2852 277.1 93.5469 277.178 93.8281C277.256 94.1094 277.295 94.4004 277.295 94.7012ZM276.1 94.7012C276.1 94.4121 276.045 94.1406 275.936 93.8867C275.826 93.6328 275.678 93.4121 275.49 93.2246C275.303 93.0332 275.082 92.8828 274.828 92.7734C274.578 92.6602 274.309 92.6016 274.02 92.5977H272.174C271.885 92.6016 271.613 92.6602 271.359 92.7734C271.109 92.8828 270.891 93.0332 270.703 93.2246C270.516 93.4121 270.367 93.6328 270.258 93.8867C270.152 94.1406 270.1 94.4121 270.1 94.7012C270.1 94.9902 270.152 95.2617 270.258 95.5156C270.367 95.7695 270.516 95.9922 270.703 96.1836C270.891 96.3711 271.109 96.5215 271.359 96.6348C271.613 96.7441 271.885 96.7988 272.174 96.7988H274.02C274.309 96.7988 274.578 96.7441 274.828 96.6348C275.082 96.5215 275.303 96.3711 275.49 96.1836C275.678 95.9922 275.826 95.7695 275.936 95.5156C276.045 95.2617 276.1 94.9902 276.1 94.7012ZM285.164 92.5977H280.664C280.539 92.5977 280.422 92.623 280.312 92.6738C280.203 92.7207 280.107 92.7852 280.025 92.8672C279.943 92.9492 279.879 93.0449 279.832 93.1543C279.785 93.2637 279.762 93.3789 279.762 93.5V98H278.561V93.5C278.561 93.207 278.615 92.9336 278.725 92.6797C278.834 92.4258 278.984 92.2051 279.176 92.0176C279.367 91.8262 279.59 91.6758 279.844 91.5664C280.098 91.457 280.371 91.4023 280.664 91.4023H285.164V92.5977ZM287.631 89.9023C287.631 90.0273 287.607 90.1445 287.561 90.2539C287.514 90.3594 287.449 90.4531 287.367 90.5352C287.285 90.6172 287.189 90.6816 287.08 90.7285C286.971 90.7754 286.855 90.7988 286.734 90.7988C286.609 90.7988 286.492 90.7754 286.383 90.7285C286.273 90.6816 286.178 90.6172 286.096 90.5352C286.014 90.4531 285.949 90.3594 285.902 90.2539C285.855 90.1445 285.832 90.0273 285.832 89.9023C285.832 89.7812 285.855 89.666 285.902 89.5566C285.949 89.4473 286.014 89.3516 286.096 89.2695C286.178 89.1875 286.273 89.123 286.383 89.0762C286.492 89.0254 286.609 89 286.734 89C286.855 89 286.971 89.0254 287.08 89.0762C287.189 89.123 287.285 89.1875 287.367 89.2695C287.449 89.3516 287.514 89.4473 287.561 89.5566C287.607 89.666 287.631 89.7812 287.631 89.9023ZM287.332 98H286.131V91.4023H287.332V98ZM290.262 98H289.061V91.4023H293.561C294.014 91.4023 294.439 91.4902 294.838 91.666C295.236 91.8379 295.584 92.0742 295.881 92.375C296.178 92.6719 296.412 93.0215 296.584 93.4238C296.756 93.8223 296.842 94.248 296.842 94.7012V98H295.641V94.7012C295.641 94.4121 295.586 94.1406 295.477 93.8867C295.367 93.6328 295.219 93.4121 295.031 93.2246C294.844 93.0332 294.623 92.8828 294.369 92.7734C294.119 92.6602 293.85 92.6016 293.561 92.5977H290.262V98ZM305.818 98.2988C305.818 98.5918 305.762 98.8652 305.648 99.1191C305.539 99.373 305.389 99.5957 305.197 99.7871C305.01 99.9785 304.787 100.129 304.529 100.238C304.275 100.348 304.004 100.402 303.715 100.402H298.916V99.2012H303.715C303.836 99.2012 303.951 99.1777 304.061 99.1309C304.17 99.084 304.266 99.0195 304.348 98.9375C304.43 98.8555 304.494 98.7598 304.541 98.6504C304.592 98.541 304.617 98.4238 304.617 98.2988V92.5977H301.318C301.029 92.6016 300.758 92.6602 300.504 92.7734C300.254 92.8828 300.035 93.0332 299.848 93.2246C299.66 93.4121 299.512 93.6328 299.402 93.8867C299.297 94.1406 299.244 94.4121 299.244 94.7012C299.244 94.9902 299.297 95.2617 299.402 95.5156C299.512 95.7656 299.66 95.9863 299.848 96.1777C300.035 96.3652 300.254 96.5156 300.504 96.6289C300.758 96.7383 301.029 96.7949 301.318 96.7988H304.02V98H301.318C300.865 97.9961 300.439 97.9082 300.041 97.7363C299.643 97.5605 299.295 97.3242 298.998 97.0273C298.705 96.7266 298.473 96.377 298.301 95.9785C298.129 95.5801 298.043 95.1543 298.043 94.7012C298.043 94.248 298.129 93.8223 298.301 93.4238C298.473 93.0254 298.705 92.6777 298.998 92.3809C299.295 92.0801 299.643 91.8438 300.041 91.6719C300.439 91.4961 300.865 91.4062 301.318 91.4023H305.818V98.2988ZM321.463 95.5977C321.463 95.9336 321.4 96.248 321.275 96.541C321.15 96.8301 320.979 97.084 320.76 97.3027C320.545 97.5176 320.291 97.6875 319.998 97.8125C319.709 97.9375 319.398 98 319.066 98H311.766V96.7988H319.066C319.234 96.7988 319.391 96.7676 319.535 96.7051C319.68 96.6426 319.805 96.5566 319.91 96.4473C320.02 96.3379 320.105 96.2109 320.168 96.0664C320.23 95.918 320.262 95.7617 320.262 95.5977C320.262 95.4336 320.23 95.2793 320.168 95.1348C320.105 94.9902 320.02 94.8633 319.91 94.7539C319.805 94.6445 319.68 94.5586 319.535 94.4961C319.391 94.4336 319.234 94.4023 319.066 94.4023H314.168C313.84 94.4023 313.529 94.3398 313.236 94.2148C312.943 94.0898 312.688 93.9199 312.469 93.7051C312.254 93.4863 312.082 93.2305 311.953 92.9375C311.828 92.6445 311.766 92.332 311.766 92C311.766 91.6719 311.828 91.3613 311.953 91.0684C312.082 90.7754 312.254 90.5215 312.469 90.3066C312.688 90.0879 312.943 89.916 313.236 89.791C313.529 89.6621 313.84 89.5977 314.168 89.5977H320.865V90.7988H314.168C314.004 90.7988 313.848 90.8301 313.699 90.8926C313.555 90.9551 313.428 91.041 313.318 91.1504C313.209 91.2598 313.123 91.3887 313.061 91.5371C312.998 91.6816 312.967 91.8359 312.967 92C312.967 92.1641 312.998 92.3203 313.061 92.4688C313.123 92.6133 313.209 92.7402 313.318 92.8496C313.428 92.959 313.555 93.0449 313.699 93.1074C313.848 93.1699 314.004 93.2012 314.168 93.2012H319.066C319.398 93.2012 319.709 93.2656 319.998 93.3945C320.291 93.5195 320.545 93.6914 320.76 93.9102C320.979 94.125 321.15 94.3789 321.275 94.6719C321.4 94.9609 321.463 95.2695 321.463 95.5977ZM330.398 98.2988C330.398 98.5918 330.344 98.8652 330.234 99.1191C330.125 99.373 329.975 99.5957 329.783 99.7871C329.596 99.9785 329.373 100.129 329.115 100.238C328.861 100.348 328.59 100.402 328.301 100.402H323.502V99.2012H328.301C328.422 99.2012 328.537 99.1777 328.646 99.1309C328.756 99.084 328.852 99.0195 328.934 98.9375C329.016 98.8555 329.08 98.7598 329.127 98.6504C329.174 98.541 329.197 98.4238 329.197 98.2988V98H325.898C325.445 98 325.02 97.9141 324.621 97.7422C324.223 97.5664 323.875 97.3301 323.578 97.0332C323.285 96.7324 323.053 96.3828 322.881 95.9844C322.709 95.582 322.623 95.1543 322.623 94.7012V91.4023H323.824V94.7012C323.824 94.9902 323.877 95.2617 323.982 95.5156C324.092 95.7656 324.24 95.9863 324.428 96.1777C324.615 96.3652 324.834 96.5156 325.084 96.6289C325.338 96.7383 325.609 96.7949 325.898 96.7988H329.197V91.4023H330.398V98.2988ZM339.018 95.9023C339.018 96.1914 338.963 96.4648 338.854 96.7227C338.744 96.9766 338.594 97.1992 338.402 97.3906C338.215 97.5781 337.992 97.7266 337.734 97.8359C337.48 97.9453 337.209 98 336.92 98H331.816V96.7988H336.92C337.041 96.7988 337.156 96.7754 337.266 96.7285C337.375 96.6816 337.471 96.6172 337.553 96.5352C337.635 96.4531 337.699 96.3594 337.746 96.2539C337.793 96.1445 337.816 96.0273 337.816 95.9023C337.816 95.7812 337.793 95.666 337.746 95.5566C337.699 95.4473 337.635 95.3516 337.553 95.2695C337.471 95.1875 337.375 95.123 337.266 95.0762C337.156 95.0254 337.041 95 336.92 95H333.615C333.365 95 333.131 94.9531 332.912 94.8594C332.693 94.7656 332.502 94.6387 332.338 94.4785C332.178 94.3145 332.051 94.123 331.957 93.9043C331.863 93.6855 331.816 93.4512 331.816 93.2012C331.816 92.9512 331.863 92.7168 331.957 92.498C332.051 92.2793 332.178 92.0898 332.338 91.9297C332.502 91.7656 332.693 91.6367 332.912 91.543C333.131 91.4492 333.365 91.4023 333.615 91.4023H338.42V92.5977H333.615C333.447 92.5977 333.305 92.6562 333.188 92.7734C333.074 92.8867 333.018 93.0293 333.018 93.2012C333.018 93.3691 333.074 93.5117 333.188 93.6289C333.305 93.7422 333.447 93.7988 333.615 93.7988H336.92C337.209 93.7988 337.48 93.8535 337.734 93.9629C337.992 94.0723 338.215 94.2227 338.402 94.4141C338.594 94.6055 338.744 94.8281 338.854 95.082C338.963 95.3359 339.018 95.6094 339.018 95.9023ZM342.545 98H341.344V92.5977H339.545V91.4023H341.344V89H342.545V91.4023H346.746V92.5977H342.545V98ZM355.289 93.5C355.289 93.793 355.234 94.0664 355.125 94.3203C355.016 94.5742 354.865 94.7969 354.674 94.9883C354.486 95.1758 354.264 95.3242 354.006 95.4336C353.752 95.543 353.48 95.5977 353.191 95.5977H348.592C348.678 95.7734 348.785 95.9355 348.914 96.084C349.043 96.2324 349.188 96.3594 349.348 96.4648C349.508 96.5703 349.682 96.6523 349.869 96.7109C350.061 96.7695 350.26 96.7988 350.467 96.7988H354.393V98H350.467C350.014 97.9961 349.588 97.9082 349.189 97.7363C348.791 97.5605 348.443 97.3242 348.146 97.0273C347.854 96.7266 347.621 96.377 347.449 95.9785C347.277 95.5801 347.191 95.1543 347.191 94.7012C347.191 94.248 347.277 93.8223 347.449 93.4238C347.621 93.0254 347.854 92.6777 348.146 92.3809C348.443 92.0801 348.791 91.8438 349.189 91.6719C349.588 91.4961 350.014 91.4062 350.467 91.4023H353.191C353.48 91.4023 353.752 91.457 354.006 91.5664C354.264 91.6758 354.486 91.8262 354.674 92.0176C354.865 92.2051 355.016 92.4258 355.125 92.6797C355.234 92.9336 355.289 93.207 355.289 93.5ZM353.191 94.4023C353.312 94.4023 353.428 94.3789 353.537 94.332C353.646 94.2852 353.742 94.2207 353.824 94.1387C353.906 94.0566 353.971 93.9609 354.018 93.8516C354.064 93.7422 354.088 93.625 354.088 93.5C354.088 93.3789 354.064 93.2637 354.018 93.1543C353.971 93.0449 353.906 92.9492 353.824 92.8672C353.742 92.7852 353.646 92.7207 353.537 92.6738C353.428 92.623 353.312 92.5977 353.191 92.5977H350.467C350.201 92.5977 349.951 92.6445 349.717 92.7383C349.486 92.832 349.279 92.9609 349.096 93.125C348.916 93.2852 348.766 93.4766 348.645 93.6992C348.527 93.918 348.451 94.1523 348.416 94.4023H353.191ZM357.668 98H356.467V91.4023H362.795C363.248 91.4023 363.674 91.4902 364.072 91.666C364.471 91.8379 364.816 92.0742 365.109 92.375C365.406 92.6719 365.641 93.0215 365.812 93.4238C365.984 93.8223 366.07 94.248 366.07 94.7012V98H364.869V94.7012C364.869 94.4121 364.814 94.1406 364.705 93.8867C364.596 93.6328 364.447 93.4121 364.26 93.2246C364.072 93.0332 363.852 92.8828 363.598 92.7734C363.348 92.6602 363.08 92.6016 362.795 92.5977H361.869V98H360.668V92.5977H357.668V98Z"
        fill="#002A42"
    />
    <path
        d="M50.1025 71H5.20703V27.5879H50.1025V33.7939H11.4131V64.7939H50.1025V71ZM44.835 52.4121H14.501V46.2061H44.835V52.4121Z"
        fill="#EF8F00"
    />
</svg>